<?xml version="1.0" encoding="utf-8"?>
<!-- Generator: Adobe Illustrator 24.0.0, SVG Export Plug-In . SVG Version: 6.00 Build 0)  -->
<svg version="1.1" xmlns="http://www.w3.org/2000/svg" xmlns:xlink="http://www.w3.org/1999/xlink" x="0px" y="0px"
	 viewBox="0 0 110 110" style="enable-background:new 0 0 110 110;" xml:space="preserve">
<style type="text/css">
	.st0{fill:#70002B;}
	.st1{fill:none;stroke:#36BD5D;stroke-miterlimit:10;}
</style>
<g id="Layer_2">
	<rect x="0.5" y="0.5" class="st0" width="109" height="109"/>
</g>
<g id="logo">
	<g>
		<path class="st1" d="M81.42,61.84c4.26,5.11-5.71,10.33-22.27,11.64c-13.25,1.05-26.75-1.41-30.16-5.5
			c-2.73-3.27,3.65-6.61,14.25-7.45c8.48-0.67,17.12,0.9,19.3,3.52c1.75,2.09-2.34,4.23-9.12,4.77c-5.43,0.43-10.96-0.58-12.35-2.25
			c-1.12-1.34,1.5-2.71,5.84-3.05c3.47-0.28,7.01,0.37,7.91,1.44c0.72,0.86-0.96,1.73-3.74,1.95c-2.22,0.18-4.49-0.24-5.06-0.92"/>
		<path class="st1" d="M81.99,68.33c0.03,1.95,0.05,13.75-8.59,21.93c-7.2,6.82-15.82,6.76-20.36,6.73
			c-5.08-0.03-11.91-0.08-17.53-5.51c-6.66-6.44-6.76-15.76-6.74-17.62"/>
		<path class="st1" d="M25.47,68.47c-2.87,0.77-4.28,1.42-4.24,1.97c0.05,0.71,2.54,1.24,7.47,1.58"/>
		<path class="st1" d="M84.13,64.94c1.47,0.17,4.82,0.64,4.89,1.53c0.07,1.07-4.66,2.18-5.8,2.44"/>
		<path class="st1" d="M56.81,56.5c1.59-0.96,3.7-2.59,4.84-5.2c2.66-6.13-2.76-11.39-1.94-17.43c0.54-3.98,3.89-9.05,15.98-14.04"
			/>
		<path class="st1" d="M56.46,56.5c2.33-3,2.86-5.49,2.8-7.38c-0.1-3.03-1.74-4.3-3.4-8.84c-0.61-1.65-2.11-5.74-1.82-8.35
			c0.89-8.02,19.82-11.82,21.3-12.1"/>
		<path class="st1" d="M54.52,52.99c-1.72-1.99-4.58-5.82-6.05-11.38c-1.01-3.79-2.48-9.35,0.12-14.04c3.2-5.76,9.63-4.95,11.5-9.92
			c1.33-3.52-0.53-7.56-2.54-10.65"/>
		<path class="st1" d="M54.52,52.99c-2.13-1.55-5.36-4.29-8.11-8.59c-2-3.13-3.87-6.07-3.88-10.17c-0.01-6.43,4.56-10.86,4.97-11.25
			c4.12-3.88,7.75-2.79,9.92-6.17c1.88-2.92,1.14-6.8,0.12-9.8"/>
	</g>
	<g>
	</g>
	<g>
	</g>
	<g>
	</g>
	<g>
	</g>
	<g>
	</g>
	<g>
	</g>
	<g>
	</g>
	<g>
	</g>
	<g>
	</g>
	<g>
	</g>
	<g>
	</g>
	<g>
	</g>
	<g>
	</g>
	<g>
	</g>
	<g>
	</g>
</g>
</svg>
