<?xml version="1.0" encoding="utf-8"?>
<!-- Generator: Adobe Illustrator 24.0.0, SVG Export Plug-In . SVG Version: 6.00 Build 0)  -->
<svg version="1.1" id="Layer_1" xmlns="http://www.w3.org/2000/svg" xmlns:xlink="http://www.w3.org/1999/xlink" x="0px" y="0px"
	 viewBox="0 0 765.26 246.86" style="enable-background:new 0 0 765.26 246.86;" xml:space="preserve">
<style type="text/css">
	.st0{fill:none;stroke:#000000;stroke-miterlimit:10;}
	.st1{fill:none;stroke:#000000;stroke-width:4;stroke-miterlimit:10;}
</style>
<g>
	<path d="M329.9,105.65h-25.05v74.25h-4.2v-74.25h-25.2v-4.2h54.45V105.65z"/>
	<path d="M396.05,101.3v65.7v4.2v8.85h-4.2v-8.85h-45.6v8.85h-4.2v-8.85v-4.2v-65.7h4.2v65.7h45.6v-65.7H396.05z"/>
	<path d="M481.85,140.6c0,21.75-17.55,39.45-39.3,39.45c-21.75,0-39.3-17.7-39.3-39.45c0-21.6,17.55-39.3,39.3-39.3
		C464.3,101.3,481.85,119,481.85,140.6z M477.65,140.6c0-19.35-15.75-35.1-35.1-35.1c-19.35,0-35.1,15.75-35.1,35.1
		c0,19.5,15.75,35.25,35.1,35.25C461.9,175.84,477.65,160.09,477.65,140.6z"/>
	<path d="M542,105.65h-25.05v74.25h-4.2v-74.25h-25.2v-4.2H542V105.65z"/>
	<path d="M600.2,136.1c0,19.35-15.6,34.8-34.8,34.8h-6.9v9.15h-4.2V101.3h4.2v0.15h6.9C584.6,101.45,600.2,116.9,600.2,136.1z
		 M593.6,148.1c1.65-3.75,2.4-7.8,2.4-12c0-4.05-0.75-8.1-2.4-11.85c-1.5-3.6-3.75-6.9-6.6-9.75c-2.7-2.7-6-4.95-9.6-6.45
		c-3.9-1.65-7.8-2.4-12-2.4h-6.9v61.05h6.9c4.2,0,8.1-0.75,12-2.4c3.6-1.5,6.9-3.75,9.6-6.45C589.85,154.99,592.1,151.7,593.6,148.1
		z"/>
	<path d="M685.7,140.6c0,21.75-17.55,39.45-39.3,39.45s-39.3-17.7-39.3-39.45c0-21.6,17.55-39.3,39.3-39.3S685.7,119,685.7,140.6z
		 M681.5,140.6c0-19.35-15.75-35.1-35.1-35.1c-19.35,0-35.1,15.75-35.1,35.1c0,19.5,15.75,35.25,35.1,35.25
		C665.75,175.84,681.5,160.09,681.5,140.6z"/>
	<path d="M745.85,105.65H720.8v74.25h-4.2v-74.25h-25.2v-4.2h54.45V105.65z"/>
</g>
<line class="st0" x1="230.45" y1="11.68" x2="230.45" y2="235.68"/>
<g>
	<path class="st1" d="M149.7,126.71c8.81,10.57-11.8,21.35-46.03,24.07c-27.39,2.18-55.3-2.91-62.36-11.37
		c-5.64-6.77,7.55-13.66,29.46-15.41c17.53-1.39,35.4,1.87,39.91,7.28c3.61,4.33-4.83,8.75-18.85,9.86
		c-11.22,0.89-22.65-1.19-25.54-4.66c-2.31-2.77,3.09-5.6,12.07-6.31c7.18-0.57,14.5,0.76,16.35,2.98c1.48,1.77-1.98,3.58-7.72,4.04
		c-4.59,0.37-9.28-0.49-10.46-1.91"/>
	<path class="st1" d="M150.88,140.12c0.07,4.04,0.1,28.43-17.75,45.34c-14.89,14.1-32.7,13.98-42.08,13.92
		c-10.51-0.07-24.62-0.16-36.24-11.4c-13.78-13.32-13.98-32.57-13.94-36.43"/>
	<path class="st1" d="M34.03,140.41c-5.93,1.58-8.85,2.94-8.76,4.07c0.11,1.47,5.25,2.56,15.43,3.27"/>
	<path class="st1" d="M155.31,133.12c3.03,0.35,9.97,1.32,10.1,3.16c0.15,2.21-9.62,4.51-11.99,5.05"/>
	<path class="st1" d="M98.82,115.67c3.29-1.99,7.66-5.35,10.01-10.76c5.5-12.66-5.7-23.54-4-36.03c1.12-8.23,8.05-18.71,33.03-29.02
		"/>
	<path class="st1" d="M98.1,115.67c4.82-6.2,5.92-11.36,5.79-15.25c-0.21-6.27-3.6-8.9-7.04-18.28c-1.25-3.42-4.35-11.87-3.75-17.26
		c1.85-16.59,40.98-24.43,44.03-25.02"/>
	<path class="st1" d="M94.09,108.42c-3.56-4.12-9.46-12.04-12.51-23.52c-2.08-7.83-5.13-19.33,0.25-29.02
		c6.61-11.91,19.9-10.23,23.77-20.52c2.74-7.28-1.1-15.62-5.25-22.02"/>
	<path class="st1" d="M94.09,108.42c-4.4-3.2-11.09-8.87-16.76-17.76c-4.13-6.47-8-12.54-8.02-21.02
		c-0.03-13.29,9.42-22.46,10.27-23.26c8.52-8.03,16.02-5.77,20.52-12.76c3.88-6.04,2.37-14.06,0.25-20.27"/>
</g>
</svg>
