<?xml version="1.0" encoding="utf-8"?>
<!-- Generator: Adobe Illustrator 24.0.0, SVG Export Plug-In . SVG Version: 6.00 Build 0)  -->
<svg version="1.1" id="Layer_1" xmlns="http://www.w3.org/2000/svg" xmlns:xlink="http://www.w3.org/1999/xlink" x="0px" y="0px"
	 viewBox="0 0 768 1000" style="enable-background:new 0 0 768 1000;" xml:space="preserve">
<style type="text/css">
	.st0{font-family:'SaiyanSans';}
	.st1{font-size:150px;}
	.st2{fill:none;stroke:#000000;stroke-miterlimit:10;}
	.st3{fill:none;stroke:#000000;stroke-width:4;stroke-miterlimit:10;}
</style>
<text transform="matrix(1 0 0 1 316.2857 438.7332)" class="st0 st1">Thotpot</text>
<line class="st2" x1="263.2" y1="280.66" x2="263.2" y2="504.66"/>
<g>
	<path class="st3" d="M182.45,395.69c8.81,10.57-11.8,21.35-46.03,24.07c-27.39,2.18-55.3-2.91-62.36-11.37
		c-5.64-6.77,7.55-13.66,29.46-15.41c17.53-1.39,35.4,1.87,39.91,7.28c3.61,4.33-4.83,8.75-18.85,9.86
		c-11.22,0.89-22.65-1.19-25.54-4.66c-2.31-2.77,3.09-5.6,12.07-6.31c7.18-0.57,14.5,0.76,16.35,2.98c1.48,1.77-1.98,3.58-7.72,4.04
		c-4.59,0.37-9.28-0.49-10.46-1.91"/>
	<path class="st3" d="M183.63,409.1c0.07,4.04,0.1,28.43-17.75,45.34c-14.89,14.1-32.7,13.98-42.08,13.92
		c-10.51-0.07-24.62-0.16-36.24-11.4c-13.78-13.32-13.98-32.57-13.94-36.43"/>
	<path class="st3" d="M66.79,409.39c-5.93,1.58-8.85,2.94-8.76,4.07c0.11,1.47,5.25,2.56,15.43,3.27"/>
	<path class="st3" d="M188.06,402.1c3.03,0.35,9.97,1.32,10.1,3.16c0.15,2.21-9.62,4.51-11.99,5.05"/>
	<path class="st3" d="M131.57,384.65c3.29-1.99,7.66-5.35,10.01-10.76c5.5-12.66-5.7-23.54-4-36.03
		c1.12-8.23,8.05-18.71,33.03-29.02"/>
	<path class="st3" d="M130.85,384.65c4.82-6.2,5.92-11.36,5.79-15.25c-0.21-6.27-3.6-8.9-7.04-18.28
		c-1.25-3.42-4.35-11.87-3.75-17.26c1.85-16.59,40.98-24.43,44.03-25.02"/>
	<path class="st3" d="M126.85,377.39c-3.56-4.12-9.46-12.04-12.51-23.52c-2.08-7.83-5.13-19.33,0.25-29.02
		c6.61-11.91,19.9-10.23,23.77-20.52c2.74-7.28-1.1-15.62-5.25-22.02"/>
	<path class="st3" d="M126.85,377.39c-4.4-3.2-11.09-8.87-16.76-17.76c-4.13-6.47-8-12.54-8.02-21.02
		c-0.03-13.29,9.42-22.46,10.27-23.26c8.52-8.03,16.02-5.77,20.52-12.76c3.88-6.04,2.37-14.06,0.25-20.27"/>
</g>
</svg>
